<svg xmlns="http://www.w3.org/2000/svg" viewBox="0 0 448 512"><!--!Font Awesome Free 6.7.2 by @fontawesome - https://fontawesome.com License - https://fontawesome.com/license/free Copyright 2025 Fonticons, Inc.--><path xmlns="http://www.w3.org/2000/svg" d="M157.6,253.5c3.4-31.7,4.7-62.9,10.5-93.3C180.4,95,216.5,43.9,268.1,3.3c10-7.8,19.7-4.3,19.9,7.2  c0.5,37.5,16.6,68.8,37.3,98.6c20.7,29.9,43.1,58.9,60.6,90.7c29.4,53.5,39.1,111.2,23.3,171.4c-19.1,72.8-83.7,129.3-158.5,139.1  c-124.4,16.4-228-83.1-218.8-209.9c2.3-31.2,6.9-62.1,23.1-89.3c7.5-12.7,17.6-24.4,28.4-34.5c12.6-11.7,19.4-7.9,24.4,8.3  c4.7,15.5,10.8,30.8,18.5,45C132.9,242,143.9,250.5,157.6,253.5z M163.5,388c-1.1,12.4-3.8,26.3-3.2,39.9  c1.5,33,27.8,60.4,58.2,62.5c33.7,2.2,61.7-19.9,68.1-54.6c4.6-24.8-2.2-47.7-15-68.8c-11.1-18.4-23-36.3-34.7-54.6  c-0.2,0.2-1.3,0.9-2,1.9c-1.8,2.4-3.5,4.9-5.2,7.3c-15.1,22.1-16.6,47.4-17.1,72.9c-0.3,13.6-6.7,19.1-19.1,13.8  C183.2,404,174.7,395.8,163.5,388z" fill="#FFFFFF"/></svg>